<svg width="14" height="18" viewBox="0 0 14 18" fill="none" xmlns="http://www.w3.org/2000/svg">
<path d="M7 4.99992C7.86333 4.99992 8.55556 4.29992 8.55556 3.44436C8.55556 3.14881 8.47778 2.87659 8.33 2.64325L7 0.333252L5.67 2.64325C5.52222 2.87659 5.44444 3.14881 5.44444 3.44436C5.44444 4.29992 6.14444 4.99992 7 4.99992ZM11.6667 7.33325H7.77778V5.7777H6.22222V7.33325H2.33333C1.04222 7.33325 0 8.37547 0 9.66659V16.6666C0 17.0944 0.35 17.4444 0.777778 17.4444H13.2222C13.65 17.4444 14 17.0944 14 16.6666V9.66659C14 8.37547 12.9578 7.33325 11.6667 7.33325ZM12.4444 15.8888H1.55556V13.5555C2.25556 13.5477 2.92444 13.2677 3.42222 12.7699L4.27 11.9377L5.10222 12.7699C6.12111 13.7888 7.89444 13.781 8.90556 12.7699L9.74556 11.9377L10.5778 12.7699C11.0756 13.2677 11.7444 13.5477 12.4444 13.5555V15.8888ZM12.4444 12.3888C12.0478 12.381 11.6744 12.2333 11.3944 11.9455L9.73778 10.2888L8.07333 11.9455C7.49778 12.521 6.49444 12.521 5.91889 11.9455L4.26222 10.2888L2.59778 11.9455C2.32556 12.2255 1.95222 12.381 1.55556 12.3888V9.66659C1.55556 9.23881 1.90556 8.88881 2.33333 8.88881H11.6667C12.0944 8.88881 12.4444 9.23881 12.4444 9.66659V12.3888Z" fill="#2C83FF"/>
</svg>
