<svg width="17" height="16" viewBox="0 0 17 16" fill="none" xmlns="http://www.w3.org/2000/svg">
<path d="M7.76166 2.48047H2.893C2.52407 2.48047 2.17025 2.62702 1.90938 2.8879C1.64851 3.14877 1.50195 3.50259 1.50195 3.87152V13.6088C1.50195 13.9778 1.64851 14.3316 1.90938 14.5925C2.17025 14.8533 2.52407 14.9999 2.893 14.9999H12.6303C12.9993 14.9999 13.3531 14.8533 13.6139 14.5925C13.8748 14.3316 14.0214 13.9778 14.0214 13.6088V8.74018" stroke="#2C83FF" stroke-width="1.2" stroke-linecap="round" stroke-linejoin="round"/>
<path d="M12.9779 1.43214C13.2546 1.15545 13.6299 1 14.0212 1C14.4125 1 14.7878 1.15545 15.0645 1.43214C15.3412 1.70884 15.4966 2.08412 15.4966 2.47543C15.4966 2.86674 15.3412 3.24202 15.0645 3.51871L8.45702 10.1262L5.67493 10.8217L6.37045 8.03962L12.9779 1.43214Z" stroke="#2C83FF" stroke-width="1.2" stroke-linecap="round" stroke-linejoin="round"/>
</svg>
