<svg width="24" height="19" viewBox="0 0 24 19" fill="none" xmlns="http://www.w3.org/2000/svg">
<path d="M21.8182 0.793013C20.6073 0.411195 19.2764 0.247559 18 0.247559C15.8727 0.247559 13.5818 0.683922 12 1.88392C10.4182 0.683922 8.12727 0.247559 6 0.247559C3.87273 0.247559 1.58182 0.683922 0 1.88392V17.8657C0 18.1385 0.272727 18.4112 0.545455 18.4112C0.654545 18.4112 0.709091 18.3567 0.818182 18.3567C2.29091 17.6476 4.41818 17.1567 6 17.1567C8.12727 17.1567 10.4182 17.593 12 18.793C13.4727 17.8657 16.1455 17.1567 18 17.1567C19.8 17.1567 21.6545 17.4839 23.1818 18.3021C23.2909 18.3566 23.3455 18.3567 23.4545 18.3567C23.7273 18.3567 24 18.0839 24 17.8112V1.88392C23.3455 1.39301 22.6364 1.06574 21.8182 0.793013ZM21.8182 15.5203C20.6182 15.1385 19.3091 14.9748 18 14.9748C16.1455 14.9748 13.4727 15.6839 12 16.6112V4.06574C13.4727 3.13847 16.1455 2.42938 18 2.42938C19.3091 2.42938 20.6182 2.59301 21.8182 2.97483V15.5203Z" fill="#90BDFD"/>
<path d="M17.9999 6.7931C18.9599 6.7931 19.8872 6.89128 20.7272 7.07674V5.41856C19.8654 5.25492 18.9381 5.15674 17.9999 5.15674C16.1454 5.15674 14.4654 5.4731 13.0908 6.06219V7.8731C14.3235 7.17492 16.0363 6.7931 17.9999 6.7931Z" fill="#90BDFD"/>
<path d="M13.0908 8.9638V10.7747C14.3235 10.0765 16.0363 9.69471 17.9999 9.69471C18.9599 9.69471 19.8872 9.7929 20.7272 9.97835V8.32017C19.8654 8.15653 18.9381 8.05835 17.9999 8.05835C16.1454 8.05835 14.4654 8.38562 13.0908 8.9638Z" fill="#90BDFD"/>
<path d="M17.9999 10.9712C16.1454 10.9712 14.4654 11.2876 13.0908 11.8766V13.6876C14.3235 12.9894 16.0363 12.6076 17.9999 12.6076C18.9599 12.6076 19.8872 12.7057 20.7272 12.8912V11.233C19.8654 11.0585 18.9381 10.9712 17.9999 10.9712Z" fill="#90BDFD"/>
</svg>
