<svg width="13" height="16" viewBox="0 0 13 16" fill="none" xmlns="http://www.w3.org/2000/svg">
<path d="M12.2272 6.72727C12.2272 11.1818 6.49998 15 6.49998 15C6.49998 15 0.772705 11.1818 0.772705 6.72727C0.772705 5.20831 1.37611 3.75155 2.45018 2.67748C3.52426 1.60341 4.98101 1 6.49998 1C8.01894 1 9.4757 1.60341 10.5498 2.67748C11.6238 3.75155 12.2272 5.20831 12.2272 6.72727Z" stroke="#2C83FF" stroke-width="1.2" stroke-linecap="round" stroke-linejoin="round"/>
<path d="M6.50016 8.6363C7.55452 8.6363 8.40925 7.78157 8.40925 6.72721C8.40925 5.67284 7.55452 4.81812 6.50016 4.81812C5.44579 4.81812 4.59106 5.67284 4.59106 6.72721C4.59106 7.78157 5.44579 8.6363 6.50016 8.6363Z" stroke="#2C83FF" stroke-width="1.2" stroke-linecap="round" stroke-linejoin="round"/>
</svg>
