<svg width="21" height="21" viewBox="0 0 21 21" fill="none" xmlns="http://www.w3.org/2000/svg">
<path d="M9.38889 4.96446H16.0556V7.18669H9.38889V4.96446ZM9.38889 9.40891H16.0556V11.6311H9.38889V9.40891ZM9.38889 13.8534H16.0556V16.0756H9.38889V13.8534ZM4.94444 4.96446H7.16667V7.18669H4.94444V4.96446ZM4.94444 9.40891H7.16667V11.6311H4.94444V9.40891ZM4.94444 13.8534H7.16667V16.0756H4.94444V13.8534ZM19.5 0.52002H1.5C0.944445 0.52002 0.5 0.964464 0.5 1.52002V19.52C0.5 19.9645 0.944445 20.52 1.5 20.52H19.5C19.9444 20.52 20.5 19.9645 20.5 19.52V1.52002C20.5 0.964464 19.9444 0.52002 19.5 0.52002ZM18.2778 18.2978H2.72222V2.74224H18.2778V18.2978Z" fill="#90BDFD"/>
</svg>
