<svg width="20" height="16" viewBox="0 0 20 16" fill="none" xmlns="http://www.w3.org/2000/svg">
<path d="M18.1818 0.727281C17.1727 0.409099 16.0636 0.272736 15 0.272736C13.2273 0.272736 11.3182 0.636372 10 1.63637C8.68182 0.636372 6.77273 0.272736 5 0.272736C3.22727 0.272736 1.31818 0.636372 0 1.63637V14.9546C0 15.1818 0.227273 15.4091 0.454545 15.4091C0.545455 15.4091 0.590909 15.3636 0.681818 15.3636C1.90909 14.7727 3.68182 14.3636 5 14.3636C6.77273 14.3636 8.68182 14.7273 10 15.7273C11.2273 14.9546 13.4545 14.3636 15 14.3636C16.5 14.3636 18.0455 14.6364 19.3182 15.3182C19.4091 15.3636 19.4545 15.3636 19.5455 15.3636C19.7727 15.3636 20 15.1364 20 14.9091V1.63637C19.4545 1.22728 18.8636 0.954554 18.1818 0.727281ZM18.1818 13C17.1818 12.6818 16.0909 12.5455 15 12.5455C13.4545 12.5455 11.2273 13.1364 10 13.9091V3.45455C11.2273 2.68183 13.4545 2.09092 15 2.09092C16.0909 2.09092 17.1818 2.22728 18.1818 2.54546V13Z" fill="#041E49"/>
<path d="M15 5.72733C15.8 5.72733 16.5727 5.80915 17.2727 5.96369V4.58187C16.5545 4.44551 15.7818 4.36369 15 4.36369C13.4545 4.36369 12.0545 4.62733 10.9091 5.11824V6.62733C11.9364 6.04551 13.3636 5.72733 15 5.72733Z" fill="#041E49"/>
<path d="M10.9091 7.53631V9.0454C11.9363 8.46359 13.3636 8.14541 15 8.14541C15.8 8.14541 16.5727 8.22722 17.2727 8.38177V6.99995C16.5545 6.86359 15.7818 6.78177 15 6.78177C13.4545 6.78177 12.0545 7.0545 10.9091 7.53631Z" fill="#041E49"/>
<path d="M15 9.20905C13.4545 9.20905 12.0545 9.47268 10.9091 9.96359V11.4727C11.9363 10.8909 13.3636 10.5727 15 10.5727C15.8 10.5727 16.5727 10.6545 17.2727 10.809V9.42723C16.5545 9.28177 15.7818 9.20905 15 9.20905Z" fill="#041E49"/>
</svg>
