<svg width="44" height="45" viewBox="0 0 44 45" fill="none" xmlns="http://www.w3.org/2000/svg">
<path d="M1.70613 37V28.6H3.26613V35.68H7.65813V37H1.70613ZM8.74572 37V30.592H10.2457V37H8.74572ZM9.50172 29.536C9.22172 29.536 8.98972 29.448 8.80572 29.272C8.62972 29.096 8.54172 28.884 8.54172 28.636C8.54172 28.38 8.62972 28.168 8.80572 28C8.98972 27.824 9.22172 27.736 9.50172 27.736C9.78172 27.736 10.0097 27.82 10.1857 27.988C10.3697 28.148 10.4617 28.352 10.4617 28.6C10.4617 28.864 10.3737 29.088 10.1977 29.272C10.0217 29.448 9.78972 29.536 9.50172 29.536ZM15.7665 37.084C15.2225 37.084 14.7385 36.964 14.3145 36.724C13.8905 36.484 13.5545 36.124 13.3065 35.644C13.0665 35.156 12.9465 34.54 12.9465 33.796C12.9465 33.044 13.0705 32.428 13.3185 31.948C13.5745 31.468 13.9145 31.112 14.3385 30.88C14.7705 30.64 15.2465 30.52 15.7665 30.52C16.3985 30.52 16.9545 30.656 17.4345 30.928C17.9225 31.2 18.3065 31.58 18.5865 32.068C18.8745 32.556 19.0185 33.132 19.0185 33.796C19.0185 34.46 18.8745 35.036 18.5865 35.524C18.3065 36.012 17.9225 36.396 17.4345 36.676C16.9545 36.948 16.3985 37.084 15.7665 37.084ZM12.2145 37V28.096H13.7145V32.08L13.5945 33.784L13.6425 35.488V37H12.2145ZM15.5985 35.8C15.9585 35.8 16.2785 35.72 16.5585 35.56C16.8465 35.4 17.0745 35.168 17.2425 34.864C17.4105 34.56 17.4945 34.204 17.4945 33.796C17.4945 33.38 17.4105 33.024 17.2425 32.728C17.0745 32.424 16.8465 32.192 16.5585 32.032C16.2785 31.872 15.9585 31.792 15.5985 31.792C15.2385 31.792 14.9145 31.872 14.6265 32.032C14.3385 32.192 14.1105 32.424 13.9425 32.728C13.7745 33.024 13.6905 33.38 13.6905 33.796C13.6905 34.204 13.7745 34.56 13.9425 34.864C14.1105 35.168 14.3385 35.4 14.6265 35.56C14.9145 35.72 15.2385 35.8 15.5985 35.8ZM20.441 37V30.592H21.869V32.356L21.701 31.84C21.893 31.408 22.193 31.08 22.601 30.856C23.017 30.632 23.533 30.52 24.149 30.52V31.948C24.085 31.932 24.025 31.924 23.969 31.924C23.913 31.916 23.857 31.912 23.801 31.912C23.233 31.912 22.781 32.08 22.445 32.416C22.109 32.744 21.941 33.236 21.941 33.892V37H20.441ZM28.9125 37V35.704L28.8285 35.428V33.16C28.8285 32.72 28.6965 32.38 28.4325 32.14C28.1685 31.892 27.7685 31.768 27.2325 31.768C26.8725 31.768 26.5165 31.824 26.1645 31.936C25.8205 32.048 25.5285 32.204 25.2885 32.404L24.7005 31.312C25.0445 31.048 25.4525 30.852 25.9245 30.724C26.4045 30.588 26.9005 30.52 27.4125 30.52C28.3405 30.52 29.0565 30.744 29.5605 31.192C30.0725 31.632 30.3285 32.316 30.3285 33.244V37H28.9125ZM26.8965 37.084C26.4165 37.084 25.9965 37.004 25.6365 36.844C25.2765 36.676 24.9965 36.448 24.7965 36.16C24.6045 35.864 24.5085 35.532 24.5085 35.164C24.5085 34.804 24.5925 34.48 24.7605 34.192C24.9365 33.904 25.2205 33.676 25.6125 33.508C26.0045 33.34 26.5245 33.256 27.1725 33.256H29.0325V34.252H27.2805C26.7685 34.252 26.4245 34.336 26.2485 34.504C26.0725 34.664 25.9845 34.864 25.9845 35.104C25.9845 35.376 26.0925 35.592 26.3085 35.752C26.5245 35.912 26.8245 35.992 27.2085 35.992C27.5765 35.992 27.9045 35.908 28.1925 35.74C28.4885 35.572 28.7005 35.324 28.8285 34.996L29.0805 35.896C28.9365 36.272 28.6765 36.564 28.3005 36.772C27.9325 36.98 27.4645 37.084 26.8965 37.084ZM32.2535 37V30.592H33.6815V32.356L33.5135 31.84C33.7055 31.408 34.0055 31.08 34.4135 30.856C34.8295 30.632 35.3455 30.52 35.9615 30.52V31.948C35.8975 31.932 35.8375 31.924 35.7815 31.924C35.7255 31.916 35.6695 31.912 35.6135 31.912C35.0455 31.912 34.5935 32.08 34.2575 32.416C33.9215 32.744 33.7535 33.236 33.7535 33.892V37H32.2535ZM37.9964 39.412C37.6844 39.412 37.3724 39.36 37.0604 39.256C36.7484 39.152 36.4884 39.008 36.2804 38.824L36.8804 37.72C37.0324 37.856 37.2044 37.964 37.3964 38.044C37.5884 38.124 37.7844 38.164 37.9844 38.164C38.2564 38.164 38.4764 38.096 38.6444 37.96C38.8124 37.824 38.9684 37.596 39.1124 37.276L39.4844 36.436L39.6044 36.256L42.0284 30.592H43.4684L40.4684 37.516C40.2684 37.996 40.0444 38.376 39.7964 38.656C39.5564 38.936 39.2844 39.132 38.9804 39.244C38.6844 39.356 38.3564 39.412 37.9964 39.412ZM39.3164 37.228L36.4244 30.592H37.9844L40.3364 36.124L39.3164 37.228Z" fill="#041E49"/>
<path d="M31.8182 0.793013C30.6073 0.411195 29.2764 0.247559 28 0.247559C25.8727 0.247559 23.5818 0.683922 22 1.88392C20.4182 0.683922 18.1273 0.247559 16 0.247559C13.8727 0.247559 11.5818 0.683922 10 1.88392V17.8657C10 18.1385 10.2727 18.4112 10.5455 18.4112C10.6545 18.4112 10.7091 18.3567 10.8182 18.3567C12.2909 17.6476 14.4182 17.1567 16 17.1567C18.1273 17.1567 20.4182 17.593 22 18.793C23.4727 17.8657 26.1455 17.1567 28 17.1567C29.8 17.1567 31.6545 17.4839 33.1818 18.3021C33.2909 18.3566 33.3455 18.3567 33.4545 18.3567C33.7273 18.3567 34 18.0839 34 17.8112V1.88392C33.3455 1.39301 32.6364 1.06574 31.8182 0.793013ZM31.8182 15.5203C30.6182 15.1385 29.3091 14.9748 28 14.9748C26.1455 14.9748 23.4727 15.6839 22 16.6112V4.06574C23.4727 3.13847 26.1455 2.42938 28 2.42938C29.3091 2.42938 30.6182 2.59301 31.8182 2.97483V15.5203Z" fill="#041E49"/>
<path d="M27.9999 6.7931C28.9599 6.7931 29.8872 6.89128 30.7272 7.07674V5.41856C29.8654 5.25492 28.9381 5.15674 27.9999 5.15674C26.1454 5.15674 24.4654 5.4731 23.0908 6.06219V7.8731C24.3235 7.17492 26.0363 6.7931 27.9999 6.7931Z" fill="#041E49"/>
<path d="M23.0908 8.9638V10.7747C24.3235 10.0765 26.0363 9.69471 27.9999 9.69471C28.9599 9.69471 29.8872 9.7929 30.7272 9.97835V8.32017C29.8654 8.15653 28.9381 8.05835 27.9999 8.05835C26.1454 8.05835 24.4654 8.38562 23.0908 8.9638Z" fill="#041E49"/>
<path d="M27.9999 10.9712C26.1454 10.9712 24.4654 11.2876 23.0908 11.8766V13.6876C24.3235 12.9894 26.0363 12.6076 27.9999 12.6076C28.9599 12.6076 29.8872 12.7057 30.7272 12.8912V11.233C29.8654 11.0585 28.9381 10.9712 27.9999 10.9712Z" fill="#041E49"/>
</svg>
